<svg xmlns="http://www.w3.org/2000/svg" viewBox="0 0 128 128">
  <rect width="128" height="128" rx="20" fill="#f7faf3"/>
  <ellipse cx="64" cy="108" rx="32" ry="7" fill="#dcebd8"/>
  <path d="M33 72c0-18 14-32 32-32s32 14 32 32c0 14-10 28-32 28S33 86 33 72Z" fill="#9ec7e8"/>
  <path d="M41 70c8-11 18-14 30-11-6 4-10 11-10 20 0 9 4 15 9 20-16-1-29-12-29-29Z" fill="#eaf5ff"/>
  <path d="m94 69 16 7-16 8Z" fill="#efb65b"/>
  <circle cx="74" cy="59" r="4" fill="#263238"/>
  <path d="M44 40q20-18 40 0" fill="none" stroke="#fff" stroke-width="9" stroke-linecap="round" opacity=".85"/>
</svg>
